<?xml version="1.0" encoding="UTF-8"?><svg id="Layer_2" xmlns="http://www.w3.org/2000/svg" viewBox="0 0 206.96 59.54"><defs><style>.cls-1{fill:#fff;}.cls-2{fill:#7831ff;}</style></defs><g id="Layer_2-2"><g><g><path class="cls-1" d="M62.54,18.91c0,6.44-4.98,8.78-8.33,8.78l-16.68,.03c-.27,0-.54-.11-.73-.31-.19-.2-.3-.47-.3-.76v-4.67c0-.29,.1-.56,.29-.76s.46-.32,.73-.32l16.65-.03c1.8-.08,1.8-1.13,1.8-1.74,0-.73-.32-1.64-1.45-1.68h-2.97c-.27,0-.54-.11-.73-.31-.19-.2-.3-.47-.3-.76v-4.67c0-.59,.46-1.07,1.03-1.07h2.92c.84-.05,3.52-.02,5.64,1.96,1.11,1.04,2.43,2.98,2.43,6.31Zm.18-17.44V6.14c0,.59-.46,1.07-1.03,1.07h-16.9c-.58,.03-1.73,.12-1.73,1.74,0,.94,.3,1.16,.71,1.36,.38,.17,.79,.28,1.2,.31h2.69c.57,0,1.03,.48,1.03,1.07v4.67c0,.59-.46,1.07-1.03,1.07h-2.69c-1.38-.03-2.74-.35-4-.96-2.85-1.39-4.48-4.14-4.48-7.54s1.52-6.08,4.28-7.53c1.22-.63,2.56-.99,3.92-1.04h17c.57,0,1.03,.48,1.03,1.07Z"/><path class="cls-1" d="M94.19,1.47V6.15c0,.59-.48,1.08-1.08,1.08h-8.03c-.59,0-1.08,.48-1.08,1.08V26.64c0,.59-.48,1.08-1.08,1.08h-4.68c-.59,0-1.08-.48-1.08-1.08V8.3c0-.59-.48-1.08-1.08-1.08h-8.03c-.59,0-1.08-.48-1.08-1.08V1.47c0-.59,.48-1.08,1.08-1.08h25.04c.59,0,1.08,.48,1.08,1.08Z"/><path class="cls-1" d="M147.66,.42c3.78,0,6.1,1.55,7.37,2.84,2.84,2.89,2.93,6.83,2.92,7.47v6.72c0,7.4-6.11,10.2-10.21,10.27h-7.53c-.59,0-1.08-.48-1.08-1.08v-4.68c0-.59,.48-1.08,1.08-1.08h7.4c1.33-.06,3.51-.6,3.51-3.45v-6.77c-.03-.7-.21-1.4-.53-2.03-.37-.69-1.02-1.4-2.93-1.4-3.41,0-6.78,0-9.34,0-.29,0-.56,.11-.76,.31s-.32,.48-.32,.76V26.64c0,.59-.48,1.08-1.08,1.08h-4.68c-.59,0-1.07-.48-1.07-1.07V1.47c0-.29,.11-.56,.32-.76,.2-.2,.48-.31,.76-.31l16.17,.02Z"/><path class="cls-1" d="M163.33,.39h4.68c.59,0,1.08,.48,1.08,1.08V26.64c0,.59-.48,1.08-1.08,1.08h-4.68c-.59,0-1.08-.48-1.08-1.08V1.47c0-.29,.11-.56,.32-.76,.2-.2,.48-.32,.76-.31Z"/><path class="cls-2" d="M63.64,40.62c0,3.45-1.59,6.15-4.48,7.59-1.28,.63-2.69,.98-4.12,1.01h-10.69c-.28,0-.56,.11-.76,.32s-.32,.48-.31,.76v8.1c0,.59-.48,1.08-1.08,1.08h-4.68c-.59,0-1.08-.48-1.08-1.08v-14.92c0-.59,.48-1.08,1.08-1.08h17.48c.6-.02,1.81-.08,1.81-1.77,0-.35-.04-.97-.32-1.25-.33-.23-.71-.37-1.11-.4h-17.86c-.59,0-1.07-.48-1.07-1.08v-4.68c0-.59,.48-1.08,1.08-1.08h17.79c.68,0,3.68,.13,5.95,2.34,1.09,1.06,2.38,2.99,2.38,6.14Z"/><path class="cls-2" d="M126.06,52.94c.2,.2,.32,.48,.32,.76v4.69c0,.59-.48,1.08-1.08,1.08h-25.2c-.59,0-1.08-.48-1.08-1.08v-25.17c0-.59,.48-1.08,1.08-1.08h4.68c.59,0,1.08,.48,1.08,1.08v18.33c0,.59,.48,1.08,1.08,1.08h18.36c.29,0,.56,.11,.76,.32Z"/><path class="cls-2" d="M157.39,52.94c.2,.2,.32,.48,.32,.76v4.68c0,.59-.48,1.08-1.08,1.08h-25.17c-.59,0-1.07-.48-1.07-1.07v-14.89c0-.59,.48-1.08,1.08-1.08h4.68c.59,0,1.08,.48,1.08,1.08v8.06c0,.59,.48,1.08,1.08,1.08h18.34c.29,0,.56,.11,.76,.31Z"/><path class="cls-2" d="M81.42,58.62v-5.06c0-.47,.36-.85,.83-.9,2.62-.29,4.86-2.08,5.7-4.63,.83-2.48,.19-5.21-1.66-7.06-1.85-1.85-4.58-2.49-7.06-1.65-2.48,.83-4.27,3-4.62,5.59-.07,.53-.53,.93-1.07,.93h-4.74c-.31,0-.6-.13-.8-.36-.21-.23-.31-.53-.28-.83,.67-7.74,7.65-13.45,15.48-12.44,6.58,.85,11.68,6.41,11.95,13.04,.31,7.56-5.45,13.8-12.76,14.31-.53,.04-.97-.39-.97-.92Z"/><path class="cls-1" d="M110.98,21.18c.2,.2,.32,.48,.32,.76v4.69c0,.6-.48,1.08-1.08,1.08h-1.44c-3.79,0-6.11-1.55-7.38-2.85-2.81-2.87-2.89-6.77-2.88-7.43V1.47c0-.6,.48-1.08,1.08-1.08h4.69c.6,0,1.08,.48,1.08,1.08V17.52c.03,.69,.2,1.36,.51,1.98,.37,.68,1,1.37,2.9,1.37h1.44c.29,0,.56,.11,.76,.32ZM125.98,1.47V17.51c0,4.1-1.88,7.29-5.28,9-1.53,.76-3.21,1.17-4.92,1.21h-1.49c-.6,0-1.08-.48-1.08-1.08v-4.69c0-.6,.48-1.08,1.08-1.08h1.46c.7-.04,1.39-.23,2.01-.55,.68-.37,1.37-1,1.37-2.8V1.47c0-.6,.48-1.08,1.08-1.08h4.69c.6,0,1.08,.48,1.08,1.08Z"/><path class="cls-2" d="M166.03,53.79l3.04-3.04c.46-.46,.54-1.16,.23-1.74-1.43-2.69-.94-6.14,1.48-8.31,2.63-2.36,6.79-2.29,9.33,.16,2.77,2.67,2.81,7.08,.1,9.79-2.18,2.18-5.47,2.58-8.06,1.2-.57-.31-1.27-.22-1.73,.24l-3.04,3.04c-.55,.55-.48,1.48,.16,1.93,5.36,3.73,12.77,3.21,17.54-1.58,5.1-5.12,5.3-13.57,.43-18.91-5.31-5.83-14.35-5.99-19.86-.48-4.77,4.77-5.28,12.18-1.55,17.53,.45,.64,1.37,.71,1.92,.16Z"/><path class="cls-2" d="M31,32.14h-3.86c-.52,0-1.03,.21-1.4,.58l-.5,.5L.21,58.25c-.45,.45-.13,1.21,.5,1.21H7.7c.68,0,1.32-.27,1.8-.75l14.39-14.39c.5-.5,1.35-.15,1.35,.56v13.5c0,.59,.48,1.08,1.08,1.08h4.68c.59,0,1.08-.48,1.08-1.08v-25.17c0-.59-.48-1.08-1.08-1.08Z"/><path class="cls-1" d="M187.98,1.69V6.01c0,.65,.44,1.21,1.06,1.4,2.92,.9,5.02,3.69,4.84,6.94-.19,3.54-3.19,6.43-6.73,6.5-3.86,.07-7.01-3.04-7.01-6.88,0-3.1,2.05-5.71,4.86-6.57,.62-.19,1.06-.74,1.06-1.4V1.7c0-.79-.71-1.39-1.48-1.25-6.44,1.15-11.34,6.77-11.33,13.55,.01,7.24,5.86,13.38,13.09,13.72,7.9,.37,14.42-5.92,14.42-13.74,0-6.77-4.89-12.38-11.32-13.53-.77-.14-1.47,.47-1.47,1.25Z"/></g><path class="cls-1" d="M201.13,2.92c0-1.69,1.23-2.92,2.92-2.92s2.92,1.23,2.92,2.92-1.23,2.92-2.92,2.92-2.92-1.23-2.92-2.92Zm5.35,0c0-1.42-1.02-2.44-2.43-2.44s-2.43,1.03-2.43,2.44,1.02,2.45,2.43,2.45,2.43-1.03,2.43-2.45Zm-3.64-1.7h1.58c.7,0,1.04,.42,1.04,1.03,0,.44-.18,.8-.57,.96l.72,1.4h-.67l-.64-1.29h-.85v1.29h-.62V1.22Zm1.5,1.57c.3,0,.5-.2,.5-.54s-.18-.51-.5-.51h-.88v1.05h.88Z"/></g></g></svg>